<?xml version="1.0" encoding="UTF-8"?>
<svg width="100pt" height="100pt" version="1.1" viewBox="0 0 100 100" xmlns="http://www.w3.org/2000/svg">
 <path d="m38.102 40.301c-0.19922 0.10156-0.30078 0.19922-0.5 0.30078 0 0-18.199 8.3008-31.398-4 0 0-1.6016-1.8008-1.8984-2.3008-1-1.8008-0.80078 2 0.19922 3.6016-0.5 0.30078-1.3008 0.5-2.6016 0.30078 0 0 1 0.5 2.8008 0.10156-0.39844 0.30078-1 0.69922-1.6992 1-0.19922 0-0.5-0.10156-0.69922-0.10156 0 0 0.19922 0.10156 0.5 0.19922-0.80078 0.30078-1.6992 0.5-2.8984 0.5 0 0 1.3984 0.5 3.8008-0.39844 0.39844 0 0.89844 0 1.5-0.19922-0.10156 0.10156-0.10156 0.10156-0.19922 0.19922-0.30859 0.29688-1.0078 0.59766-2.0078 0.69531 0 0 0.60156 0.10156 1.5-0.19922-0.80078 0.89844-1.6992 1.8008-2.3984 2.5 0.10156 0.10156 0.30078-0.10156 0.60156-0.19922 1.1016-0.60156 2.1992-1.1992 3.3984-1.8008-0.5 0.80078-1.3984 1.8008-3 2.6992 0 0 1.6016-0.30078 3.3008-2.3008-0.60156 1.5-1.6992 2.6992-2.8008 4 1.5-0.30078 2.6992-1 3.6992-1.8984-0.5 1.1992-1.6016 2.6016-3.3984 3.8984 0 0 2-0.60156 4-3.6016-0.19922 1.3008-0.89844 3.1016-2.6016 5 0 0 0.69922-0.39844 1.5-1.3984-0.30078 0.5-0.60156 0.89844-0.80078 1.3984 2.3008-0.69922 3.6992-2.3008 4.8008-4.1016-0.5 1.1992-1.5 2.6992-3.5 4.1016 0 0 1.6016-0.5 3.3984-2.6992-0.19922 0.69922-0.60156 1.5-1.1992 2.3008 0 0 1-0.69922 1.8008-2.6992-0.30078 1.3984-0.89844 2.8008-1.5 4.1992 0.89844-0.39844 1.6016-1 2.1992-1.6016-0.39844 0.89844-1 1.8984-2 2.8984 0 0 2.1992-1.1992 3.6016-5.3008-0.19922 1.1016-0.69922 2.6992-2.3008 4.3008 0 0 1.1992-0.69922 2.3008-2.8008-0.30078 1.1016-0.60156 2.1992-0.89844 3.3008 1.8008-0.89844 2.8008-2.5 3.5-4.3984-0.10156 0.89844-0.39844 2-1.3984 3.3984 0 0 1.1992-0.80078 1.8008-3.1016 0 1.1016-0.19922 2.6992-1.6992 4.6992 0 0 0.80078-0.60156 1.5-2-0.10156 0.30078-0.10156 0.60156-0.19922 0.89844-0.10156 0.30078-0.19922 0.5-0.30078 0.89844 1.6016-0.89844 2.3984-2.1992 3-3.6992 0 0.89844-0.30078 2.1992-1.3984 3.6992 0 0 1.3008-0.89844 1.8984-3.5-0.10156 1.1016-0.39844 2.6992-1.8008 4.6016 0 0 0.80078-0.60156 1.6016-2.1016 0.30078-0.30078 0.60156-0.89844 0.89844-1.6992-0.19922 1.1992-0.30078 2.5-0.5 3.5 0.10156 0 1-2.1992 1.6016-3.6016-0.10156 2.3008 0.60156 3.3984 0.60156 3.3984-0.5-1.8008-0.30078-3.1016-0.10156-4 0 1.8984 0.69922 2.8008 0.69922 2.8008-0.39844-1.3984-0.39844-2.5-0.19922-3.3984h0.10156c0.19922 1.5 0.60156 3 1.6016 4.1992v-2.8984c0 0.39844 0.10156 0.60156 0.19922 0.80078 0.19922 1.3008 0.69922 1.8984 0.69922 1.8984-0.39844-1.1016-0.5-1.8984-0.39844-2.6016 0.39844 2.1992 1.3984 3 1.3984 3-1-1.6016-1.1016-2.8984-1-3.8008 0.39844 1.8008 1.3008 2.1992 1.3008 2.1992-0.89844-1.3984-1-2.3984-0.89844-3.3984h0.10156c0.10156 2 0.39844 3.1992 1.6016 4.3984 0-1.1016-0.10156-2 0-3v-0.30078c0.30078 1.6992 1.1016 2.3984 1.1016 2.3984-0.60156-1-0.69922-1.8008-0.69922-2.3984 0.10156 1.3984 0.60156 2 0.60156 2-0.5-1.3008-0.39844-2.1992-0.30078-2.8984 0.10156 3.1016 1.3984 4.3008 1.3984 4.3008-1.1992-2.1016-1-3.6992-0.69922-4.3008h0.10156c0.19922 2.3984 1.3008 3.3008 1.3008 3.3008-0.60156-1-1-1.8008-1-2.3984 0.19922 1 1.1992 2.1016 1.1992 2.8008v-3.8008c0 0.60156 0.60156 1.1016 0.89844 1.3984 0.19922 0.89844 0.60156 1.3008 0.60156 1.3008-0.10156-0.39844-0.19922-0.69922-0.19922-1 0.30078 0.30078 0.60156 0.5 0.60156 0.5-0.19922-0.30078-0.39844-0.5-0.60156-0.80078-0.10156-0.5-0.10156-0.89844 0-1.3008 0.80078 2.3984 2.1016 3.1016 2.1016 3.1016-1.3008-1.3984-1.6016-2.6992-1.6992-3.5 0.60156 1.1016 1.3984 2.6992 1.8984 3.6992 0.10156 0-0.39844-2-0.60156-3 0.69922 1.1992 1.3984 1.5 1.3984 1.5-1.6016-1.3984-1.3984-2.6992-1.3984-2.8008 0.69922 1.8008 1.8008 2.1992 1.8008 2.1992-1.1016-1-1.3984-1.8984-1.3984-2.3984h0.10156c0.39844 1.8008 1.3008 2.3984 1.3008 2.3984-0.80078-1-0.89844-1.8008-1-2.3008 0.5 0.80078 1.1016 1.8984 1.6016 2.6016 0.10156 0-0.10156-0.69922-0.30078-1.3008 0.5 0.69922 1 0.89844 1 0.89844-0.80078-0.69922-1.1016-1.3008-1.3008-1.8984 0.69922 1.3984 1.5 1.6992 1.5 1.6992-1.3008-1.1992-1.3984-2.3008-1.3984-2.6992h0.10156c0.80078 2 2 2.5 2 2.5-1.1016-1-1.5-2-1.5-2.6016 0.5 0.60156 1.3984 1.8008 1.8008 2.3984 0 0-0.5-1.5-0.89844-2.3984 0.89844 1.1992 1.8008 1.3984 1.8008 1.3984-0.69922-0.5-1.1992-1-1.3984-1.3984 0.39844 0.30078 0.80078 0.5 1.1016 0.60156 0.30078 0.30078 0.60156 0.39844 0.60156 0.39844-0.10156-0.10156-0.30078-0.30078-0.39844-0.39844 0.19922 0 0.30078 0.10156 0.39844 0.10156 0.30078 0.39844 0.5 0.69922 0.60156 0.89844 0.10156 0-1.1992-3.5 0.60156-4.1016-0.39844-0.60156-0.80078-1.1992-1.3008-1.8008 0.0625 0.11719-0.035157 0.21484-0.23438 0.31641zm-0.30078 4.3008c-0.5-0.30078-0.89844-0.60156-1.1016-0.89844 0.19922-0.10156 0.30078-0.19922 0.5-0.19922 0.10156 0.39453 0.30078 0.79688 0.60156 1.0977zm-32.602-5.8008c-0.10156 0-0.19922 0.10156-0.30078 0.10156 0.10156-0.003906 0.20312-0.003906 0.30078-0.10156zm18.902 7.5977v1.5c-0.10156-0.59766 0-1.1992 0-1.5zm6.3984-0.69922c0.10156 0 0.19922 0 0.30078-0.10156v1.3984c-0.10156-0.49609-0.19922-0.89453-0.30078-1.2969zm7.6016-1c-0.39844-0.60156-0.60156-1.1016-0.60156-1.3984 0.30078 0.39844 0.69922 1 1.1016 1.6016-0.20312-0.003906-0.40234-0.10156-0.5-0.20312z"/>
 <path d="m96.199 39.398c2.3984 0.80078 3.8008 0.39844 3.8008 0.39844-1.1992 0-2.1016-0.19922-2.8984-0.5 0.30078-0.10156 0.5-0.19922 0.5-0.19922-0.30078 0.10156-0.5 0.10156-0.69922 0.10156-0.80078-0.30078-1.3984-0.69922-1.6992-1 1.8008 0.5 2.8008-0.10156 2.8008-0.10156-1.3008 0.19922-2.1016 0-2.6016-0.30078 1.1016-1.6016 1.3008-5.3984 0.19922-3.6016-0.30078 0.5-1.8984 2.3008-1.8984 2.3008-13.102 12.301-31.398 4-31.398 4-0.19922-0.10156-0.30078-0.19922-0.5-0.30078-0.19922-0.10156-0.30078-0.19922-0.5-0.30078-0.39844 0.60156-0.89844 1.1992-1.3008 1.8008 1.8008 0.60156 0.5 4.1016 0.60156 4.1016 0.19922-0.19922 0.39844-0.5 0.60156-0.89844 0.10156 0 0.19922 0 0.39844-0.10156-0.10156 0.10156-0.19922 0.30078-0.39844 0.39844 0 0 0.30078-0.10156 0.60156-0.39844 0.30078-0.10156 0.69922-0.30078 1.1016-0.60156-0.30078 0.39844-0.69922 0.89844-1.3984 1.3984 0 0 0.89844-0.19922 1.8008-1.3984-0.30078 0.89844-0.89844 2.3984-0.89844 2.3984 0.5-0.60156 1.3008-1.8008 1.8008-2.3984-0.10156 0.60156-0.39844 1.6016-1.5 2.6016 0 0 1.1016-0.5 2-2.5h0.10156c0 0.39844-0.10156 1.5-1.3984 2.6992 0 0 0.80078-0.39844 1.5-1.6992-0.19922 0.5-0.5 1.1992-1.3008 1.8984 0 0 0.5-0.19922 1-0.89844-0.19922 0.60156-0.30078 1.1992-0.30078 1.3008 0.39844-0.69922 1.1016-1.8008 1.6016-2.6016 0 0.5-0.19922 1.3984-1 2.3008 0 0 0.89844-0.60156 1.3008-2.3984h0.10156c0 0.5-0.30078 1.5-1.3984 2.3984 0 0 1-0.39844 1.8008-2.1992 0 0.10156 0.19922 1.3984-1.3984 2.8008 0 0 0.69922-0.30078 1.3984-1.5-0.30078 1-0.69922 3-0.60156 3 0.5-1 1.3008-2.5 1.8984-3.6992-0.10156 0.80078-0.39844 2.1016-1.6992 3.5 0 0 1.3008-0.69922 2.1016-3.1016 0.10156 0.30078 0.10156 0.80078 0 1.3008-0.19922 0.30078-0.30078 0.5-0.60156 0.80078 0 0 0.19922-0.10156 0.5-0.5-0.10156 0.30078-0.10156 0.60156-0.30078 1 0 0 0.5-0.39844 0.69922-1.3008 0.19922-0.30078 0.89844-0.80078 0.89844-1.3984v3.8008c0-0.80078 1-1.8008 1.1992-2.8008 0 0.60156-0.30078 1.5-0.89844 2.3984 0 0 1.1016-0.89844 1.3008-3.3008h0.10156c0.19922 0.69922 0.39844 2.1992-0.80078 4.3008 0 0 1.3008-1.1992 1.3984-4.1992 0.19922 0.60156 0.19922 1.6016-0.30078 2.8984 0 0 0.5-0.60156 0.60156-2 0 0.60156-0.19922 1.3984-0.69922 2.3984 0 0 0.69922-0.69922 1.1016-2.3008v0.30078c0.10156 1 0 1.8008 0 2.8984 1.1992-1.1992 1.5-2.3984 1.6016-4.3984h0.10156c0.10156 1 0 2-0.89844 3.3984 0 0 0.80078-0.5 1.3008-2.3008 0.10156 0.89844-0.10156 2.1992-1 3.8008 0 0 1-0.80078 1.3984-3 0.10156 0.69922 0 1.6016-0.39844 2.6016 0 0 0.39844-0.60156 0.60156-1.8984 0.10156-0.19922 0.19922-0.5 0.19922-0.80078v2.8984c1-1.1992 1.3984-2.6992 1.6016-4.1992h0.10156c0.19922 0.80078 0.19922 2-0.19922 3.3984 0 0 0.60156-0.89844 0.69922-2.8008 0.30078 0.89844 0.5 2.1992 0 4 0 0 0.80078-1.1016 0.60156-3.3984 0.5 1.3984 1.5 3.6016 1.6016 3.6016-0.10156-1-0.30078-2.3008-0.5-3.5 0.30078 0.80078 0.60156 1.3984 0.89844 1.6992 0.80078 1.5 1.6016 2.1016 1.6016 2.1016-1.3984-1.8008-1.6992-3.3984-1.8008-4.6016 0.60156 2.6016 1.8984 3.5 1.8984 3.5-1.1016-1.5-1.3984-2.8008-1.3984-3.6992 0.60156 1.5 1.3984 2.8008 3 3.6992-0.10156-0.39844-0.30078-0.69922-0.30078-0.89844-0.10156-0.30078-0.10156-0.60156-0.19922-0.89844 0.69922 1.5 1.5 2 1.5 2-1.5-2-1.6992-3.6992-1.6992-4.6992 0.69922 2.3008 1.8008 3.1016 1.8008 3.1016-1-1.3008-1.3008-2.5-1.3984-3.3984 0.69922 1.8984 1.6992 3.5 3.5 4.3984-0.30078-1.1016-0.60156-2.1992-0.89844-3.3008 1.1016 2.1016 2.3008 2.8008 2.3008 2.8008-1.6016-1.6992-2.1016-3.1992-2.3008-4.3008 1.3008 4.1992 3.6016 5.3008 3.6016 5.3008-0.89844-1-1.6016-2-2-2.8984 0.60156 0.69922 1.3008 1.1992 2.1992 1.6016-0.69922-1.3984-1.3008-2.6992-1.5-4.1992 0.69922 2 1.8008 2.6992 1.8008 2.6992-0.60156-0.80078-1-1.6016-1.1992-2.3008 1.8008 2.3008 3.3984 2.6992 3.3984 2.6992-2-1.3984-3-2.8984-3.5-4.1016 1.1992 1.8008 2.5 3.3984 4.8008 4.1016-0.30078-0.5-0.60156-0.89844-0.80078-1.3984 0.80078 1 1.5 1.3984 1.5 1.3984-1.6992-1.8984-2.3984-3.6992-2.6016-5 2 3 4 3.6016 4 3.6016-1.8984-1.3008-2.8984-2.6992-3.3984-3.8984 1 0.89844 2.1992 1.6992 3.6992 1.8984-1.1016-1.3008-2.1016-2.6016-2.8008-4 1.8008 2 3.3008 2.3008 3.3008 2.3008-1.6016-0.80078-2.5-1.8008-3-2.6992 1.1016 0.60156 2.1992 1.1992 3.3984 1.8008 0.19922 0.10156 0.5 0.30078 0.60156 0.19922-0.69922-0.69922-1.6016-1.6992-2.3984-2.5 0.89844 0.30078 1.5 0.19922 1.5 0.19922-1-0.10156-1.6016-0.5-2.1016-0.80078-0.10156-0.10156-0.10156-0.10156-0.19922-0.19922 1.0625 0.29297 1.5625 0.29297 1.9609 0.29297zm-1.3984-0.59766c0.10156 0 0.19922 0.10156 0.30078 0.10156-0.10156-0.003906-0.20312-0.003906-0.30078-0.10156zm-31.902 4.5977c0.10156 0.10156 0.30078 0.10156 0.5 0.19922-0.19922 0.30078-0.60156 0.60156-1.1016 0.89844 0.20312-0.19531 0.40234-0.59766 0.60156-1.0977zm-1.3984 1.5c0.39844-0.60156 0.89844-1.1992 1.1016-1.6016 0 0.30078-0.19922 0.89844-0.60156 1.3984-0.19922 0.10547-0.39844 0.20313-0.5 0.20313zm7.6016 0.80078c0.10156 0 0.19922 0 0.30078 0.10156 0 0.39844-0.10156 0.80078-0.39844 1.3008 0.097656-0.5 0.19531-0.90234 0.097656-1.4023zm6.7969 2.1992c0-0.39844 0-0.80078-0.10156-1.5h0.10156c0 0.30078 0.10156 0.90234 0 1.5z"/>
</svg>
